<svg xmlns="http://www.w3.org/2000/svg" width="200" height="200" viewBox="0 0 200 200">
  <svg class="img-fluid" id="outputsvg" xmlns="http://www.w3.org/2000/svg"
       width="200"
       height="200" viewBox="0 0 16800 17540">
    <defs>
      <!-- Градиент для передней грани -->
      <linearGradient id="frontGradient" x1="0%" y1="0%" x2="100%" y2="100%">
        <stop offset="0%" style="stop-color:#ff6b6b;stop-opacity:1" />
        <stop offset="25%" style="stop-color:#4ecdc4;stop-opacity:1" />
        <stop offset="50%" style="stop-color:#45b7d1;stop-opacity:1" />
        <stop offset="75%" style="stop-color:#96ceb4;stop-opacity:1" />
        <stop offset="100%" style="stop-color:#feca57;stop-opacity:1" />
      </linearGradient>
    </defs>
    <g id="l2Qjh2CLFzoeLy2gdfI78RS" fill="url(#frontGradient)" style="transform: none;">
      <g style="transform: none;">
        <path id="pphCfhsrb"
              d="M8670 16700 c-63 -25 -372 -162 -510 -225 -63 -29 -203 -94 -310 -143 -107 -50 -220 -101 -250 -115 -30 -13 -299 -140 -598 -281 -299 -141 -545 -256 -547 -256 -2 0 -83 -38 -180 -85 -97 -47 -178 -85 -179 -85 -2 0 -88 -41 -192 -91 -104 -50 -319 -153 -479 -229 -469 -222 -691 -329 -1015 -485 -168 -81 -354 -171 -415 -200 -60 -29 -243 -117 -405 -195 -162 -79 -344 -166 -405 -195 -119 -57 -365 -177 -899 -439 -186 -91 -340 -166 -342 -166 -8 0 -976 -485 -1174 -588 -173 -90 -215 -117 -273 -172 l-68 -65 -5 -4325 c-6 -4250 -1 -5308 25 -5400 15 -49 71 -140 101 -162 48 -34 463 -150 1470 -409 85 -22 216 -56 290 -76 74 -20 169 -44 210 -54 41 -9 201 -50 355 -89 154 -40 314 -80 355 -90 93 -22 1034 -259 1190 -300 157 -41 828 -208 920 -229 41 -10 131 -32 200 -50 257 -65 439 -111 580 -145 80 -19 264 -64 410 -100 289 -71 828 -202 1120 -272 102 -24 259 -62 350 -83 91 -22 217 -50 281 -62 114 -22 116 -22 215 -4 92 16 269 57 689 156 94 22 197 46 230 54 168 39 2191 537 2480 610 11 3 304 77 650 164 914 231 1261 319 1615 410 917 236 1167 301 1515 395 94 25 222 59 285 76 192 52 281 82 309 105 37 32 78 112 90 179 25 134 35 1437 35 4586 0 3002 -10 4582 -33 4970 -12 213 -48 260 -311 400 -96 51 -200 106 -230 123 -71 38 -705 373 -875 462 -71 37 -247 130 -390 205 -143 75 -332 174 -420 220 -88 46 -239 124 -335 175 -96 51 -251 132 -345 180 -93 48 -244 127 -335 175 -91 48 -255 133 -365 190 -110 56 -213 110 -230 120 -16 10 -106 57 -200 105 -93 48 -253 131 -355 185 -102 53 -248 130 -325 170 -232 121 -361 188 -555 290 -102 53 -266 139 -365 190 -99 51 -193 101 -210 110 -16 10 -106 57 -200 105 -93 49 -204 106 -245 128 -41 21 -136 71 -210 110 -115 60 -329 173 -838 444 -170 91 -260 110 -352 73z m-279 -1376 c7 -593 3 -9473 -4 -9481 -5 -4 -432 -143 -1017 -329 -113 -36 -223 -72 -245 -79 -45 -16 -243 -78 -485 -155 -162 -51 -246 -78 -560 -179 -85 -28 -218 -70 -295 -95 -77 -25 -259 -83 -405 -130 -146 -46 -443 -141 -660 -211 -217 -69 -456 -146 -530 -170 -74 -23 -209 -66 -300 -95 -91 -29 -219 -69 -285 -91 -183 -59 -920 -294 -1095 -349 -85 -27 -267 -85 -405 -129 -137 -43 -329 -104 -425 -134 -96 -31 -246 -78 -334 -106 -87 -28 -174 -54 -194 -57 l-35 -7 7 1704 c3 937 7 2665 8 3839 2 1174 4 2396 6 2716 l3 581 127 61 c70 33 192 92 272 130 80 38 217 104 305 147 88 42 248 119 355 170 107 51 298 143 423 204 126 61 230 111 232 111 2 0 119 56 260 125 142 69 258 125 260 125 1 0 87 41 191 91 104 50 243 117 309 149 66 32 244 117 395 190 151 73 367 176 480 230 113 54 286 137 385 185 99 48 216 104 260 125 87 41 263 125 500 240 83 40 238 114 345 165 107 51 293 141 414 199 120 58 219 106 221 106 1 0 92 43 201 96 499 242 1290 614 1299 611 6 -2 12 -184 16 -503z m985 320 c343 -174 745 -379 869 -444 97 -51 255 -133 830 -430 83 -43 258 -134 391 -203 133 -69 407 -212 610 -317 203 -106 405 -211 449 -235 44 -23 175 -91 290 -150 116 -59 215 -111 220 -115 6 -4 109 -58 230 -120 121 -62 234 -120 250 -130 17 -10 111 -59 210 -110 198 -102 562 -291 895 -465 118 -62 348 -181 510 -265 162 -85 354 -184 425 -221 l130 -68 -1 -3973 c-1 -3700 -8 -4764 -29 -4820 -4 -10 -14 -18 -22 -18 -19 0 -358 114 -1023 345 -217 75 -510 177 -650 225 -140 49 -334 116 -430 150 -96 34 -206 72 -245 85 -38 13 -149 51 -245 85 -199 70 -231 81 -730 255 -201 70 -410 143 -465 162 -55 18 -122 43 -150 53 -27 11 -207 74 -400 141 -192 67 -420 146 -505 176 -85 30 -256 90 -380 133 -124 43 -290 102 -370 130 -80 28 -194 69 -255 90 -60 21 -175 62 -255 90 -80 28 -181 64 -225 80 -185 66 -179 62 -187 116 -20 145 -30 1417 -35 4339 -5 2938 4 5006 24 5418 5 112 8 127 23 127 10 0 121 -52 246 -116z m-364 -10530 c156 -52 328 -111 383 -129 122 -41 95 -31 1360 -470 567 -197 1080 -374 1140 -395 189 -65 592 -206 775 -270 96 -34 276 -97 400 -140 124 -43 396 -137 605 -210 629 -219 864 -300 982 -341 116 -39 158 -57 150 -65 -4 -4 -719 -185 -927 -234 -63 -15 -171 -41 -240 -59 -154 -40 -304 -78 -715 -180 -387 -97 -98 -25 -2030 -506 -896 -223 -1700 -424 -1785 -445 -85 -22 -266 -67 -401 -100 l-245 -60 -110 20 c-146 28 -536 118 -999 231 -110 27 -292 71 -405 98 -351 86 -1300 320 -1400 346 -176 45 -465 117 -510 127 -25 6 -94 23 -155 40 -60 16 -155 40 -210 53 -55 13 -289 71 -520 130 -231 59 -458 116 -505 126 -47 11 -116 29 -154 40 -38 12 -114 31 -170 44 -56 13 -191 47 -301 75 -110 28 -285 73 -390 100 -207 52 -399 103 -484 126 -29 9 -50 19 -45 24 12 11 711 240 1804 590 311 99 626 201 700 225 74 24 200 65 280 90 80 26 183 59 230 75 47 15 164 53 260 84 182 57 865 275 1100 350 74 24 200 64 280 89 80 25 327 104 550 175 223 72 466 149 540 172 74 23 196 61 270 85 74 23 207 65 295 93 88 27 189 59 225 70 36 11 70 21 77 21 7 1 140 -42 295 -95z">
        </path>
        <path id="pZW8pemDC"
              d="M2940 11516 c-106 -33 -144 -51 -240 -114 -286 -189 -519 -569 -580 -946 -69 -424 48 -745 310 -851 65 -26 226 -32 314 -11 161 38 321 139 467 295 206 219 340 481 384 749 24 146 17 424 -15 532 -40 141 -133 266 -236 318 -114 58 -271 69 -404 28z">
        </path>
        <path id="p192buq3q7"
              d="M4635 10334 c-81 -19 -265 -112 -347 -174 -146 -111 -308 -311 -400 -494 -49 -98 -110 -279 -134 -401 -21 -108 -24 -368 -5 -460 42 -200 133 -326 298 -409 192 -96 421 -67 647 81 102 67 289 258 365 373 117 175 202 372 242 560 32 148 32 389 1 504 -56 203 -208 366 -391 420 -67 20 -194 20 -276 0z">
        </path>
        <path id="p17p9FDXPA"
              d="M6440 9090 c-185 -38 -369 -148 -546 -324 -266 -267 -423 -615 -441 -977 -19 -391 146 -663 448 -734 246 -57 533 57 789 314 206 207 327 425 402 727 30 120 32 141 32 304 0 164 -1 180 -27 255 -66 199 -221 362 -396 416 -77 23 -197 32 -261 19z">
        </path>
        <path id="p1DF5u7qMq"
              d="M13453 11089 c-207 -35 -357 -179 -429 -414 -27 -87 -27 -385 0 -500 97 -419 390 -829 701 -980 244 -119 429 -115 597 12 183 139 273 439 224 746 -54 332 -223 651 -468 882 -149 141 -283 217 -440 249 -84 17 -107 18 -185 5z">
        </path>
        <path id="pe9DnBVnV"
              d="M11390 9630 c-172 -21 -318 -120 -392 -265 -55 -107 -98 -290 -98 -416 0 -226 95 -529 237 -759 167 -267 388 -461 618 -540 154 -53 330 -46 459 18 104 52 201 152 254 262 66 137 77 190 77 380 0 186 -12 254 -75 430 -79 222 -205 425 -364 585 -114 115 -204 181 -321 236 -133 62 -263 85 -395 69z">
        </path>
        <path id="pSLyFNUM5"
              d="M8390 3470 c-397 -27 -614 -104 -791 -280 -102 -101 -125 -187 -80 -293 37 -86 156 -194 286 -259 78 -40 251 -95 349 -112 168 -29 418 -40 624 -27 341 20 461 44 627 120 174 81 287 177 324 276 29 78 27 101 -20 194 -33 67 -53 92 -106 136 -37 30 -101 72 -143 94 -80 42 -283 111 -383 131 -125 25 -464 35 -687 20z">
        </path>
      </g>
    </g>
  </svg>